<?xml version="1.0" encoding="utf-8"?>
<!-- Generator: Adobe Illustrator 26.0.3, SVG Export Plug-In . SVG Version: 6.00 Build 0)  -->
<svg version="1.1" id="Camada_1" xmlns="http://www.w3.org/2000/svg" xmlns:xlink="http://www.w3.org/1999/xlink" x="0px" y="0px"
	 viewBox="0 0 768 768" style="enable-background:new 0 0 768 768;" xml:space="preserve">
<style type="text/css">
	.st0{fill:#FFFFFF;}
</style>
<g>
	<g>
		<path class="st0" d="M322.21,740.62c-0.1-2.28-0.29-4.55-0.29-6.83c-0.01-104.16-0.05-208.31,0.1-312.47
			c0.01-5.09-1.07-6.71-6.47-6.65c-25.93,0.31-51.87-0.04-77.8,0.29c-5.27,0.07-6.07-1.56-6.04-6.32
			c0.2-37.96,0.25-75.92-0.04-113.88c-0.04-5.36,1.64-6.11,6.37-6.07c26.12,0.22,52.25-0.02,78.38,0.22
			c4.67,0.04,5.6-1.41,5.59-5.77c-0.07-33.95-0.33-67.92,0.35-101.86c0.61-30.5,6.86-60.02,20.99-87.24
			c7.16-13.8,16.55-26.17,28.59-36.62c14.45-12.54,30.81-20.3,49.01-25.64c20.93-6.15,42.07-4.13,63.2-3.91
			c11.23,0.12,22.45,1.23,33.68,1.89c2.07,1.69,4.98,0.45,7.09,2c11.31,0.39,11.31,0.39,11.31,11.74c0,31.96-0.1,63.93,0.11,95.89
			c0.03,4.53-0.73,6.08-5.71,6c-18.63-0.29-37.27-0.01-55.91,0.06c-2.5,1.86-5.87-0.04-8.35,1.91
			c-22.75,2.52-32.73,18.4-35.38,38.49c-2.88,21.84-1.04,43.83-1.44,65.74c-0.2,10.87,0.14,21.76-0.13,32.63
			c-0.1,3.87,1.18,4.67,4.8,4.66c30.52-0.14,61.05,0.01,91.57-0.16c4.76-0.03,6.88,0.29,6.18,6.26
			c-4.09,35.21-7.67,70.48-11.45,105.73c-0.48,4.52,0.91,10.58-2.1,13.14c-3.46,2.93-9.48,0.9-14.37,0.92
			c-23.27,0.1-46.55,0.12-69.82-0.04c-3.72-0.03-4.8,0.94-4.8,4.76c0.11,106.29,0.09,212.58,0.1,318.87c0,0.75,0.18,1.5,0.28,2.26
			C393.94,740.62,358.08,740.62,322.21,740.62z"/>
	</g>
</g>
</svg>
