<?xml version="1.0" encoding="utf-8"?>
<!-- Generator: Adobe Illustrator 26.0.3, SVG Export Plug-In . SVG Version: 6.00 Build 0)  -->
<svg version="1.1" id="Camada_1" xmlns="http://www.w3.org/2000/svg" xmlns:xlink="http://www.w3.org/1999/xlink" x="0px" y="0px"
	 viewBox="0 0 768 768" style="enable-background:new 0 0 768 768;" xml:space="preserve">
<style type="text/css">
	.st0{fill:#167EE5;}
	.st1{fill:#FED400;}
	.st2{fill:#FE4B26;}
	.st3{fill:#12B247;}
	.st4{fill:#D83F21;}
	.st5{fill:#0F983E;}
</style>
<g>
	<g>
		<path class="st0" d="M497.85,573.95c23.44-14.87,44.74-32.2,62.05-54.1c12.61-15.94,23.11-33.14,30.99-51.9
			c0.9-2.14,2.35-4.14,2-7.27c-2.58,0-5.16,0-7.75,0c-51.19,0-102.37,0.01-153.56-0.01c-20.71-0.01-29.5-8.84-29.5-29.54
			c-0.01-28.57-0.02-57.14,0-85.71c0.01-18.77,9.16-28.03,28.08-28.04c75.95-0.06,151.89-0.03,227.84-0.03c20,0,40-0.02,60,0.01
			c20.41,0.03,28.24,7.05,31.22,27.29c0.74,5.02,0.09,10.35,2.78,15.02c0,17.14,0,34.29,0,51.43c-1.49,14.56-2.04,29.19-4.92,43.64
			c-11.53,57.75-35.81,109.47-72.51,155.46c-27.43,34.38-60.54,62.2-97.88,85.18c-2.22,1.37-4.43,2.87-7.27,2.27
			c-2.39-0.89-3.73-2.86-4.92-4.93c-21.62-37.7-43.57-75.21-65.16-112.94C498.35,578.05,496.59,576.34,497.85,573.95z"/>
		<path class="st1" d="M193.23,269.66c-10.22,20.1-19.37,40.59-24.19,62.79c-11.82,54.43-4.29,106.08,21.95,155.11
			c0.88,1.64,1.52,3.41,2.27,5.12c-0.55,2.65-2.73,3.74-4.78,4.93c-36.74,21.37-73.72,42.32-110.45,63.71
			c-2.61,1.52-5.22,3.41-8.57,3.02c-3.43-2.12-4.94-5.73-6.71-9.03C42.2,517.1,28.44,476.63,22.48,433.58
			c-1.17-8.41-0.47-16.95-1.96-25.33c0-18.1,0-36.19,0-54.29c1.63-12.62,1.49-25.38,3.78-37.98c7.06-38.87,20.26-75.51,39.06-110.18
			c1.56-2.88,2.97-5.99,5.92-7.86c3.14-0.66,5.46,1.24,7.87,2.65c36.33,21.25,72.91,42.05,109.36,63.07
			C189.13,265.16,192.19,266.32,193.23,269.66z"/>
		<path class="st2" d="M193.23,269.66c-40.99-23.7-81.98-47.4-122.97-71.1c-1.73-2.89,0.33-5.03,1.61-7.15
			c13.13-21.57,27.88-41.92,45.29-60.28c26.32-27.76,55.57-51.78,89.14-70.4c40.54-22.49,83.58-37.51,129.58-43.7
			c7.68-1.03,15.53-0.43,23.23-1.67c9.05,0,18.1,0,27.14,0c2.45,2.74,2.3,6.14,2.3,9.45c0.05,41.31,0.05,82.62,0,123.93
			c0,3.3,0.19,6.71-2.29,9.44c-52.09,1.05-98.87,17.03-139.6,49.86c-19.62,15.82-36.03,34.49-49.35,55.88
			C196.07,265.9,194.6,267.75,193.23,269.66z"/>
		<path class="st3" d="M70.34,563.72c40.97-23.68,81.95-47.36,122.92-71.04c8.58,12.2,16.57,24.83,26.67,35.92
			c43.88,48.19,98.37,73.24,163.5,75.19c0.95,0.03,1.89,0.15,2.84,0.23c2.48,2.73,2.29,6.14,2.29,9.44
			c0.05,41.31,0.05,82.62,0,123.93c0,3.31,0.15,6.71-2.3,9.45c-9.52,0-19.05,0-28.57,0c-11.94-1.65-24.03-1.63-35.96-3.81
			c-45.98-8.41-88.73-24.98-128.55-49.36c-29.87-18.29-56.15-40.9-79.79-66.56c-15.84-17.19-29.43-36.17-41.47-56.22
			C70.64,568.76,68.57,566.61,70.34,563.72z"/>
		<path class="st4" d="M386.27,158.18c0-47.61-0.01-95.21-0.01-142.82c9.52,0,19.05,0,28.57,0c8.72,3.01,17.97,2.7,26.95,4.08
			c60.75,9.36,115.4,32.93,164.48,69.7c6.46,4.84,12.75,9.94,18.86,15.23c11.77,10.18,12.69,25.26,1.75,36.4
			c-22.01,22.41-44.25,44.59-66.61,66.64c-10.26,10.11-22.66,10.19-34.61,0.6c-26.11-20.97-55.39-35.32-87.94-43.28
			C420.77,160.57,403.49,159.73,386.27,158.18z"/>
		<path class="st5" d="M569.31,697.13c-12.24,9.06-26.18,14.94-40.03,20.8c-35.68,15.1-72.78,24.81-111.55,27.53
			c-1.14,0.08-2.42-0.09-2.9,1.39c-9.52,0-19.05,0-28.57,0c0-47.61,0-95.21,0.01-142.82c27.46-1.47,54.52-5.07,80.14-15.74
			c10.63-4.43,20.97-9.54,31.45-14.34c22.24,38.41,44.47,76.83,66.71,115.24C566.11,691.85,567.72,694.48,569.31,697.13z"/>
	</g>
</g>
</svg>
