<?xml version="1.0" encoding="utf-8"?>
<!-- Generator: Adobe Illustrator 26.0.3, SVG Export Plug-In . SVG Version: 6.00 Build 0)  -->
<svg version="1.1" id="Camada_1" xmlns="http://www.w3.org/2000/svg" xmlns:xlink="http://www.w3.org/1999/xlink" x="0px" y="0px"
	 viewBox="0 0 1366 768" style="enable-background:new 0 0 1366 768;" xml:space="preserve">
<style type="text/css">
	.st0{fill:#FFFFFF;}
</style>
<g>
	<g>
		<path class="st0" d="M544.13,591.27c-25.83,5.7-51.52,11.9-76.09,21.95c-7.96,3.26-15.69,6.98-22.47,12.4
			c-2.25,1.8-4.29,3.8-5.84,6.25c-2.97,4.67-2.88,9.36,0.35,13.84c2.95,4.11,6.98,6.98,11.29,9.46c10.35,5.98,21.55,9.9,32.94,13.31
			c24.47,7.33,49.5,12.08,74.67,16.11c26.64,4.26,53.42,7.46,80.27,10.1c26.26,2.59,52.56,4.55,78.9,6.1
			c16.47,0.97,32.94,2.11,49.44,1.52c42.58-1.51,83.4-10.22,121.3-30.36c14.17-7.53,27.32-16.55,37.66-29.1
			c3.66-4.45,6.69-9.29,8.21-14.93c2.25-8.35-0.35-15.3-7.49-20.15c-5.73-3.9-12.33-5.43-18.94-6.88
			c-17.02-3.74-34.09-7.23-51.43-9.21c-10.35-1.18-20.74-1.83-31.13-2.53c-14.45-0.96-28.85-2.44-43.44-4.37
			c0.77-0.94,1.67-0.57,2.41-0.59c23.79-0.55,47.58-0.53,71.34,1.03c25.3,1.65,50.47,4.31,75.07,10.83
			c13.04,3.45,25.72,7.83,36.88,15.71c7.19,5.08,12.89,11.33,15.17,20.14c0.28,1.08,0.09,2.27,0.8,3.23c0,1.91,0,3.82,0,5.73
			c-0.87,4.07-3.47,7.1-6.17,10.04c-10.31,11.19-22.83,19.43-36.04,26.71c-21.66,11.94-44.77,20.09-68.64,26.26
			c-19.87,5.14-40.03,8.67-60.39,11.04c-11.79,1.37-23.61,2.56-35.52,2.62c-2.76,0.01-5.54,0.2-8.32,0.2
			c-3.52,0.16-7.06-0.32-10.56,0.27c-10.07,0-20.15,0-30.22,0c-2.71-0.58-5.45-0.11-8.17-0.27c-0.93-0.05-1.89,0.18-2.8-0.19
			c-21.51-0.84-42.96-2.43-64.34-4.86c-21.36-2.43-42.63-5.53-63.81-9.27c-32.19-5.68-64.13-12.47-95.73-20.84
			c-19.44-5.15-38.7-10.9-57.08-19.22c-6.65-3.01-13.08-6.42-18.77-11.06c-0.81-0.66-1.58-1.35-2.33-2.08
			c-8.18-8.04-7.86-15.86,1.01-23.22c7.04-5.84,15.29-9.48,23.74-12.7c20.16-7.68,41.11-12.44,62.19-16.66
			c13.6-2.72,27.26-5.08,41.01-6.91C543.54,590.65,544.18,590.27,544.13,591.27z"/>
		<path class="st0" d="M846.41,408.88c-15.14,4.76-30.48,8.78-45.9,12.5c-27.42,6.61-55.11,11.79-83.08,15.47
			c-41.41,5.45-82.99,7.64-124.72,5.25c-28.2-1.62-56.16-5.07-83.31-13.35c-9.72-2.97-19.21-6.54-27.72-12.26
			c-2.75-1.85-5.26-3.99-7.24-6.68c-3.2-4.37-3.11-8.62,0.23-12.89c1.62-2.07,3.58-3.8,5.72-5.28c7.71-5.33,16.23-8.87,25.22-11.36
			c2,1.25,4.01,1.02,6.22,0.41c9.54-2.66,19.3-4.32,29.06-5.98c6.93-1.17,13.91-2.04,20.88-2.69c5.86-0.54,11.72-1.31,17.63-1.37
			c5.37-0.05,10.74-0.39,16.09-0.9c1.3-0.12,2.62-0.25,3.9-0.05c3.3,0.51,5.24-1.16,6.67-3.84c2.5-4.68,4.45-9.62,6.61-14.45
			c5.91-13.24,11.22-26.74,15.89-40.47c4.2-12.35,7.78-24.89,8.96-37.95c0.51-5.62,0.62-11.27-0.6-16.86
			c-0.73-3.35-1.98-6.48-4.11-9.2c-5.35-6.81-8.46-14.71-11.14-22.82c-0.6-1.81-1.23-3.62-1.7-5.47c-0.17-0.67-0.36-1.48,0.31-1.93
			c0.7-0.47,1.3,0.15,1.83,0.57c2.44,1.95,4.8,4,7.21,5.99c3.62,3,7.84,5.13,11.37,8.26c5.18,4.59,7.96,10.48,9.37,17.04
			c2.41,11.19,1.07,22.29-1.43,33.29c-4,17.54-10.71,34.09-18.37,50.31c-4.9,10.37-10.25,20.5-15.96,30.44
			c-0.43,0.75-0.86,1.51-1.11,2.35c-0.81,2.69,0.58,4.6,3.51,4.65c4.69,0.08,9.39,0.17,14.07-0.02c4.34-0.18,8.64,0.57,12.99,0.18
			c2.88-0.26,4.39-1.72,5.26-4.24c2.04-5.91,3.86-11.9,5.68-17.88c4.84-15.87,9.31-31.85,12.71-48.1
			c2.51-11.98,4.49-24.04,5.4-36.29c0.63-8.42,0.04-16.62-1.76-24.81c-0.6-2.75-1.48-5.43-3.05-7.71
			c-6.16-8.94-9.68-18.98-12.55-29.32c-0.49-1.76-1.07-3.49-1.41-5.28c-0.16-0.81-0.7-1.87,0.21-2.39c0.89-0.51,1.61,0.4,2.2,0.99
			c4.28,4.34,8.88,8.3,13.79,11.9c3.69,2.71,6.77,5.95,9.17,9.84c4.19,6.79,6.37,14.25,7.19,22.1c2.15,20.38-1.6,40.11-6.74,59.69
			c-4.82,18.36-11.37,36.11-18.5,53.66c-1.63,4.02-3.5,7.95-5.09,11.99c-1.69,4.29-0.77,5.66,3.7,6.34c1.99,0.3,3.97,0.49,5.97,0.39
			c6.62-0.32,13.15,0.84,19.74,1.15c4.51,0.21,6.58-0.92,8.47-4.98c7.06-15.2,14.14-30.4,19.89-46.16
			c4.08-11.17,7.9-22.45,9.91-34.23c1.32-7.72,2.23-15.45,0.44-23.27c-0.71-3.12-1.76-6-3.78-8.47
			c-5.94-7.28-8.66-15.95-10.82-24.87c-0.23-0.95-0.81-2.21,0.32-2.86c1.07-0.62,2,0.33,2.73,1.01c4.01,3.78,8.73,6.57,13.21,9.7
			c6.54,4.57,10.04,11.09,11.62,18.79c2.52,12.29,0.27,24.2-2.95,36c-5.37,19.65-14.02,37.91-23.62,55.78
			c-3.49,6.5-7.11,12.93-10.91,19.26c-1.72,2.85-0.61,4.85,2.71,5.25c11.11,1.33,22.27,2.03,33.4,3.18c2.24,0.23,4.5,0.45,6.68,1.05
			c0.48,0.13,1.15,0.26,1.16,0.85c0.02,0.79-0.76,0.81-1.32,0.93c-0.6,0.13-1.21,0.14-1.82,0.08c-11.48-1.13-23.03-1.18-34.5-2.46
			c-2.85-0.32-5.73-0.1-8.59-0.08c-1.58,0.01-2.83,0.72-3.89,1.83c-1.51,1.59-2.53,3.52-3.8,5.28c-0.94,1.3,0.23,2.52-0.09,3.76
			c-6.65,10.32-13.62,20.4-22.28,29.26c5.12-13.37,12.35-25.69,18.43-38.91c-7.89-0.47-15.58-0.94-23.27-1.39
			c-1.39-0.08-2.78-0.08-4.16-0.16c-5.46-0.32-5.44-0.31-7.88,4.74c-5.1,10.54-10.36,20.99-16.5,30.98c-1.03,1.68-2,3.42-3.7,4.89
			c-0.6-1.42-0.05-2.61,0.29-3.77c3.39-11.56,7.57-22.87,11.31-34.32c0.19-0.58,0.33-1.18,0.59-1.72c0.58-1.23,0-1.5-1.11-1.52
			c-3.21-0.05-6.42-0.18-9.63-0.23c-6.6-0.1-13.2-0.07-19.79-0.29c-2.04-0.07-3.06,0.68-4.08,2.36c-7.7,12.68-15.7,25.18-25,36.77
			c-0.79,0.99-1.56,2.02-3.02,2.42c5.44-14.03,12.71-27.19,18.78-40.82c-0.12-0.6-0.55-0.47-0.84-0.46
			c-23.72,0.48-47.35,1.87-70.64,6.73c-8.76,1.83-17.36,4.21-25.36,8.35c-4.04,2.09-7.79,4.58-10.5,8.34
			c-3.56,4.95-2.99,8.39,2.02,11.84c5.08,3.49,10.88,5.33,16.74,6.93c15.45,4.21,31.27,6.28,47.16,7.85
			c41.72,4.11,83.55,4.52,125.41,3.05c45.49-1.59,90.76-5.47,135.53-14.06c8.76-1.68,17.45-3.78,26.17-5.69
			C845.42,408.25,846.21,407.65,846.41,408.88z"/>
		<path class="st0" d="M468.06,448.04c11.5,17.45,23.12,34.83,35.47,51.7c18.8,25.67,38.6,50.48,62.21,71.99
			c16.21,14.76,33.83,27.42,54.52,35.25c34.11,12.91,66.54,8.86,97.45-9.91c21.19-12.86,38.58-29.99,54.41-48.81
			c22.08-26.26,40.36-55.1,57.21-84.89c10.33-18.26,19.98-36.88,29.18-55.74c0.3-0.62,0.66-1.21,1-1.81
			c0.15-0.16,0.3-0.16,0.46-0.01c-3.78,13.8-8.45,27.3-13.45,40.69c-11.87,31.84-26.25,62.46-44.71,91.07
			c-15.63,24.21-33.7,46.3-56.47,64.22c-20.09,15.81-42.46,26.69-67.8,31.2c-32.49,5.78-61.7-1.73-88.26-20.97
			c-20.15-14.6-37.12-32.35-52.51-51.73c-25.45-32.05-46.15-67.11-65.07-103.28c-1.44-2.76-2.81-5.56-4.21-8.34
			C467.28,448.06,467.56,447.95,468.06,448.04z"/>
		<path class="st0" d="M690.15,387.18c-1.74-1.59-1.19-2.96-0.15-4.89c2.79-5.17,6.59-7.49,12.62-6.8
			c9.42,1.09,18.93,1.22,28.39,2.02c4.19,0.35,8.43,0.58,12.67,0.56c-4.3-1.6-8.86-1.37-13.3-1.91c-6.41-0.78-12.89-1.07-19.33-1.65
			c-3.17-0.29-6.31-0.89-9.5-1.08c-2.39-0.15-3.73-3.11-2.47-5.36c2.44-4.39,5.06-8.67,7.53-13.04
			c5.94-10.5,11.45-21.22,16.35-32.24c5.24-11.79,9.7-23.86,12.59-36.47c1.69-7.36,2.9-14.78,2.43-22.33
			c-0.43-6.87-1.83-13.61-5.84-19.36c-2.48-3.56-5.94-6.23-9.71-8.49c-4.29-2.56-8.1-5.81-12.1-8.96c0.59,4.92,1.94,9.56,3.58,14.13
			c1.77,4.93,4.41,9.34,7.68,13.44c3.28,4.11,4.08,9.15,4.39,14.15c0.68,10.93-1.7,21.48-4.65,31.9
			c-4.73,16.68-11.24,32.69-18.35,48.47c-2.88,6.4-5.81,12.78-8.8,19.12c-1.43,3.03-4.6,4.55-7.86,4.3
			c-6.71-0.5-13.4-1.65-20.16-1.26c-2.8,0.16-5.51-0.41-8.27-0.59c-2.35-0.15-3.87-2.6-3-5.01c1.38-3.82,2.96-7.58,4.55-11.32
			c7.53-17.7,14.08-35.74,19.18-54.3c1.9-6.91,3.64-13.88,4.96-20.9c1.09-5.82,1.96-11.71,2.45-17.66
			c0.47-5.64,0.51-11.27,0.34-16.88c-0.34-11.73-3.09-22.77-10.59-32.18c-2.67-3.36-6.4-5.53-9.68-8.19
			c-4.03-3.27-7.87-6.74-11.64-10.38c1.31,6.34,3.03,12.51,5.23,18.55c2.35,6.45,5.45,12.48,9.21,18.26
			c3.15,4.85,3.74,10.7,4.48,16.35c0.34,2.56,0.56,5.17,0.52,7.75c-0.2,11.76-1.66,23.38-3.78,34.94
			c-2.92,15.9-7.02,31.51-11.41,47.05c-2.61,9.24-5.54,18.39-8.46,27.53c-1.74,5.47-3.69,6.96-9.37,6.35
			c-7.37-0.79-14.73-0.17-22.09-0.44c-0.87-0.03-1.74,0.01-2.61-0.01c-3.05-0.05-4.77-2.53-3.75-5.47c1.1-3.14,3.2-5.73,4.75-8.64
			c7.22-13.52,14.21-27.14,19.95-41.39c3.85-9.57,7.27-19.26,9.87-29.24c2.61-10.01,4.13-20.17,3.41-30.51
			c-0.54-7.74-2.89-15-7.98-20.99c-2.62-3.08-6.28-5.07-9.63-7.38c-4.31-2.98-8.42-6.25-12.4-9.8c1.68,6.03,3.36,11.99,5.96,17.64
			c2.07,4.49,4.47,8.77,7.52,12.71c3.35,4.35,4.32,9.57,4.56,14.9c0.63,13.93-2.57,27.26-6.49,40.48
			c-3.48,11.71-7.89,23.08-12.4,34.4c-3.94,9.89-8.24,19.65-12.92,29.22c-1.46,2.98-3.55,4.19-7.18,4.22
			c-8.8,0.07-17.59,0.8-26.38,1.39c-6.37,0.43-12.72,1.05-19.07,1.6c-3.09,0.27-6.2,0.7-9.22,1.22
			c-11.62,2.01-23.32,3.74-34.65,7.17c-2.11,0.64-3.51,0.3-4.55-1.61c9.2-3.21,18.72-5.08,28.27-6.76
			c22.11-3.9,44.45-5.33,66.84-6.13c1.19-0.04,2.25,0.13,2.95-1.4c10.48-23.06,20.53-46.28,27.28-70.78
			c2.38-8.62,4.21-17.35,4.62-26.33c0.38-8.53-0.88-16.39-6.41-23.49c-5.94-7.63-8.69-16.91-11.4-26.07
			c-1.28-4.31-2.53-8.65-3.24-13.1l-0.08,0.07c4.91,5.24,9.73,10.58,15.56,14.85c2.38,1.74,4.74,3.53,7.25,5.07
			c9.78,6.03,14.49,15.11,15.85,26.19c1.78,14.54-1.29,28.49-5.5,42.25c-7.24,23.68-18.18,45.71-30.26,67.23
			c-0.89,1.59-1.77,3.18-2.65,4.77c-0.03,0.06,0.01,0.16,0.04,0.54c4.78,0,9.58-0.03,14.39,0.01c5.04,0.04,10.07,0.1,15.11,0.26
			c1.35,0.04,1.97-0.34,2.39-1.66c8.79-27.51,17.13-55.13,21.77-83.71c1.92-11.84,3.17-23.75,1.85-35.77
			c-0.71-6.45-2.52-12.48-6.2-17.99c-6.15-9.22-9.16-19.77-11.91-30.36c-1.26-4.86-2.25-9.8-3.34-14.7
			c-0.21-0.92-0.51-1.76-1.05-2.57c-11.61-17.18-17.76-36.31-20.25-56.76c-2.37-19.41-1.47-38.62,3.22-57.62
			c1.26-5.13,2.89-10.15,5.5-15.6c0.23,5.13,0.46,9.55,0.61,13.98c0.79,23.17,2.51,46.27,4.92,69.32c1.6,15.35,3.72,30.63,6.58,45.8
			c0.25,1.31,0.73,2.43,1.52,3.51c5.55,7.53,11.69,14.58,19.4,19.86c13.47,9.21,18.69,22.51,19.98,37.94
			c1.67,19.84-2.13,39.05-7.17,58.06c-6.01,22.68-14.42,44.51-23.87,65.95c-1.21,2.74-1.2,2.75,1.79,2.91
			c9.62,0.52,19.25,0.98,28.86,1.61c1.64,0.11,1.86-0.89,2.33-1.87c7.57-15.71,14.74-31.58,20.76-47.95
			c4.76-12.95,9.01-26.06,10.67-39.85c0.62-5.19,0.78-10.39-0.2-15.56c-0.57-3.01-1.35-6.04-3.32-8.39
			c-7.09-8.49-10.07-18.66-12.33-29.16c-0.63-2.95-1.21-5.91-1.81-8.86c0.3-0.14-0.05,0.03,0.01,0.01c1.01-0.64,1.16,0.43,1.52,0.84
			c5.3,6.06,11.35,11.22,18.27,15.33c10.18,6.06,14.88,15.34,15.95,26.81c1.4,14.96-2.35,29.09-7.12,43
			c-7.8,22.74-19.08,43.81-31.35,64.39c-0.35,0.59-0.69,1.18-1.19,2.04c5.44,0.49,10.68,0.97,15.92,1.44
			c25.23,2.23,50.38,5.16,75.47,8.68c3.94,0.55,7.87,1.19,11.81,1.78c0.06,1.81-1.34,2.36-2.6,3.03
			c-10.28-0.72-20.57-1.44-30.85-2.15c-17.29-1.2-34.59-2.39-51.88-3.57c-6.66-0.46-13.32-0.84-19.97-1.39
			c-1.92-0.16-3.17,0.16-4.17,2.02C693.43,382.7,691.7,384.89,690.15,387.18z"/>
		<path class="st0" d="M784.54,566.8c6.18-2.33,12.42-4.35,18.45-6.93c17.45-7.45,33.09-17.86,47.85-29.62
			c19.75-15.73,38-33.03,53.72-52.85c7.29-9.19,14.02-18.78,17.58-30.16c0.62-1.97,1.12-4.03,1.34-6.08
			c0.99-9.25-2.71-15.45-11.21-19.31c-6.98-3.17-13.99-3.52-21.24-0.96c-11.3,4-20.94,10.73-30.23,18.05
			c-3.91,3.09-7.65,6.39-11.59,9.49c5.54-9.66,12.33-18.34,20.31-26.07c10.12-9.8,21.53-17.5,35.37-21.03
			c8.18-2.09,16.46-2.52,24.75-0.69c10.2,2.25,15.95,9.28,16.28,19.73c0.25,7.78-1.77,15.11-4.55,22.27
			c-6.2,15.92-15.48,30.02-26.04,43.3c-19.4,24.4-42.05,45.2-68.87,61.27c-15.37,9.2-31.63,16.15-49.5,18.82
			c-2.4,0.36-4.82,0.59-7.25,0.75C788.01,566.89,786.27,566.8,784.54,566.8z"/>
		<path class="st0" d="M614.52,206.21c-9.43-11.34-15.49-24.37-18.89-38.63c-5.49-23.06-4.88-45.89,3.28-68.32
			c0.76-2.09,1.79-4.09,3.2-6.08c0.08,0.88,0.21,1.75,0.23,2.63c0.37,15.36,1.48,30.67,2.86,45.96c1.91,21.15,4.56,42.2,9.08,62.98
			c0.11,0.5,0.11,1.02,0.16,1.53C614.45,206.28,614.52,206.21,614.52,206.21z"/>
		<path class="st0" d="M704.94,218.01c0.19-0.82-0.46-1.26-0.86-1.78c-9.61-12.55-14.2-26.96-14.95-42.54
			c-1.16-24.03,4.48-46.62,15.47-67.94c0.19-0.36,0.42-0.71,0.99-0.98c-0.2,2.06-0.41,4.12-0.58,6.18
			c-0.18,2.16-0.27,4.33-0.46,6.49c-1.69,19.39-2.31,38.82-2.11,58.28c0.14,13.47,0.8,26.89,2.69,40.24
			C705.21,216.63,705.01,217.33,704.94,218.01C704.94,218.02,704.94,218.01,704.94,218.01z"/>
		<path class="st0" d="M801.62,385.38c0.87-1.01,1.73-2.02,2.6-3.03c7.83,0.72,15.55,2.23,23.33,3.33c2.82,0.4,5.63,0.92,8.44,1.39
			c-1.44,1.47-3.16,0.54-4.77,0.55C821.35,386.87,811.48,386.13,801.62,385.38z"/>
		<path class="st0" d="M859.96,405.79l-0.23,0.02l-0.23-0.01c-0.54-1.24-1.31-0.31-1.92-0.14c-3.73,1.04-7.44,2.14-11.16,3.22
			c-0.4-0.62-1.1-0.31-1.63-0.52c4.87-1.41,9.73-2.82,14.6-4.21c0.34-0.1,0.84-0.58,1.07,0.02
			C860.68,404.75,860.46,405.35,859.96,405.79z"/>
		<path class="st0" d="M831.22,387.62c1.54-0.6,3.29,0.6,4.77-0.56c2.69,0.37,5.37,0.74,8.06,1.1
			C839.73,388.5,835.46,388.33,831.22,387.62z"/>
		<path class="st0" d="M544.13,591.27c-0.36-0.18-0.72-0.37-1.08-0.55c1.67-0.85,3.53-0.44,5.31-0.76
			C547.13,591.01,545.62,591.11,544.13,591.27z"/>
		<path class="st0" d="M468.06,448.04c-0.19,0.2-0.38,0.4-0.57,0.61c-0.83-1.44-1.65-2.87-2.48-4.31
			C466.53,445.23,467.39,446.56,468.06,448.04z"/>
	</g>
</g>
</svg>
