<?xml version="1.0" encoding="utf-8"?>
<!-- Generator: Adobe Illustrator 26.0.3, SVG Export Plug-In . SVG Version: 6.00 Build 0)  -->
<svg version="1.1" id="Camada_1" xmlns="http://www.w3.org/2000/svg" xmlns:xlink="http://www.w3.org/1999/xlink" x="0px" y="0px"
	 viewBox="0 0 768 768" style="enable-background:new 0 0 768 768;" xml:space="preserve">
<g>
	<g>
		<path d="M9,669.76c0-8.19,0-16.39,0-24.58c0.16-1.04,0.42-2.08,0.48-3.12c1.58-27.67,7.25-54.47,17.35-80.27
			c34.54-88.22,109.78-149.9,203.49-166.85c1.49-0.27,3.54,0.2,4.76,1.09c48.36,35.16,102.29,50.16,161.79,44.33
			c43.06-4.22,81.75-19.93,116.19-46.06c2.11-1.6,4.1-2.18,6.68-1.89c47.85,5.4,91.67,21.62,129.97,50.82
			c72.96,55.62,109,129.78,108.4,221.55c-0.1,14.86-1.9,29.59-7.45,43.59c-6.17,15.57-17.05,25.87-33.62,29.6
			c-3.79,0.85-7.65,1.37-11.48,2.03c-5.46,0-10.93,0-16.39,0c-0.75-0.17-1.48-0.39-2.24-0.49c-8.21-1.11-16.51-1.75-24.61-3.38
			c-28.18-5.66-56.26-11.86-84.45-17.49c-27.2-5.43-54.65-9.11-82.45-9.16c-72.97-0.12-145.94-0.18-218.92,0
			c-13.53,0.03-27.11,0.87-40.59,2.14c-28.09,2.66-55.65,8.62-83.2,14.52c-19.53,4.18-39.15,7.98-58.76,11.77
			c-5.23,1.01-10.59,1.4-15.89,2.07c-5.46,0-10.93,0-16.39,0c-1.04-0.19-2.08-0.45-3.13-0.56c-20.72-2.15-35.34-12.53-42.37-32.35
			c-2.49-7.01-3.9-14.43-5.35-21.76C9.83,680.22,9.59,674.96,9,669.76z"/>
		<path d="M373.22,9.56C483.74,9.58,573.9,99.83,573.67,210.22C573.45,321,483.46,410.67,372.61,410.57
			c-110.3-0.1-200.24-90.28-200.16-200.67C172.53,99.39,262.58,9.53,373.22,9.56z"/>
	</g>
</g>
</svg>
